<svg width="512" height="512" viewBox="0 0 512 512" fill="none" xmlns="http://www.w3.org/2000/svg">
  <!-- Background Circle -->
  <circle cx="256" cy="256" r="256" fill="#1A1A1A"/>

  <!-- Bitcoin Orange Circle -->
  <circle cx="256" cy="256" r="200" fill="#FF9500" opacity="0.1"/>

  <!-- Wrench Tool Icon -->
  <path d="M380 180C380 208.719 356.719 232 328 232C323.582 232 319.327 231.327 315.327 230.109L220 325.436C215.782 329.654 215.782 336.346 220 340.564L250.436 371C254.654 375.218 261.346 375.218 265.564 371L360.891 275.673C362.109 279.673 362.782 283.927 362.782 288.345C362.782 317.064 386.063 340.345 414.782 340.345C443.501 340.345 466.782 317.064 466.782 288.345C466.782 259.626 443.501 236.345 414.782 236.345C410.364 236.345 406.109 237.018 402.109 238.236L371.673 207.8C367.455 203.582 360.764 203.582 356.545 207.8L261.218 303.127C257 299.109 252.745 295.436 248 292.454V180C248 151.281 271.281 128 300 128C328.719 128 352 151.281 352 180C352 208.719 328.719 232 300 232H248V292.454C243.255 295.436 239 299.109 234.782 303.127L139.455 207.8C135.236 203.582 128.545 203.582 124.327 207.8L93.8909 238.236C89.8909 237.018 85.6364 236.345 81.2182 236.345C52.4991 236.345 29.2182 259.626 29.2182 288.345C29.2182 317.064 52.4991 340.345 81.2182 340.345C109.937 340.345 133.218 317.064 133.218 288.345C133.218 283.927 132.545 279.673 131.327 275.673L226.654 180.346C230.872 176.128 230.872 169.436 226.654 165.218L196.218 134.782C192 130.564 185.309 130.564 181.091 134.782L85.7636 230.109C81.7636 231.327 77.5091 232 73.0909 232C44.3718 232 21.0909 208.719 21.0909 180C21.0909 151.281 44.3718 128 73.0909 128C101.81 128 125.091 151.281 125.091 180H248Z" fill="#FF9500"/>

  <!-- Lightning Bolt Accent -->
  <path d="M280 100L240 200H280L260 280L320 180H280L280 100Z" fill="#FFB84D" opacity="0.8"/>

  <!-- Africa Continent Silhouette (simplified) -->
  <path d="M340 350C340 350 360 340 370 330C380 320 390 300 390 280C390 260 385 245 375 235C365 225 350 220 340 220C330 220 315 225 305 235C295 245 290 260 290 280C290 300 300 320 310 330C320 340 340 350 340 350Z" fill="#FF9500" opacity="0.3"/>
</svg>
